<svg xmlns="http://www.w3.org/2000/svg" width="800" height="500" viewBox="0 0 800 500">
  <rect width="800" height="500" rx="16" fill="#F5F7FA"/>
  <rect x="40" y="40" width="720" height="420" rx="12" fill="#FFFFFF" stroke="#E2E8F0" stroke-width="1"/>
  <rect x="40" y="40" width="720" height="50" rx="12" fill="#06245C"/>
  <circle cx="68" cy="65" r="8" fill="#0757B8"/>
  <text x="90" y="70" font-family="Inter, system-ui, sans-serif" font-size="14" font-weight="600" fill="#FFFFFF">SmartBiz Suite</text>
  <rect x="60" y="110" width="200" height="100" rx="8" fill="#EAF5FA" stroke="#0757B8" stroke-width="1" opacity="0.5"/>
  <text x="160" y="155" text-anchor="middle" font-family="Inter, system-ui, sans-serif" font-size="28" font-weight="700" fill="#06245C">47</text>
  <text x="160" y="178" text-anchor="middle" font-family="Inter, system-ui, sans-serif" font-size="12" fill="#64748B">Orders Today</text>
  <rect x="280" y="110" width="200" height="100" rx="8" fill="#F5F7FA" stroke="#E2E8F0" stroke-width="1"/>
  <text x="380" y="155" text-anchor="middle" font-family="Inter, system-ui, sans-serif" font-size="28" font-weight="700" fill="#06245C">1,243</text>
  <text x="380" y="178" text-anchor="middle" font-family="Inter, system-ui, sans-serif" font-size="12" fill="#64748B">Customers</text>
  <rect x="500" y="110" width="240" height="100" rx="8" fill="#EAF5FA" stroke="#0757B8" stroke-width="1" opacity="0.5"/>
  <text x="620" y="155" text-anchor="middle" font-family="Inter, system-ui, sans-serif" font-size="28" font-weight="700" fill="#0757B8">+18%</text>
  <text x="620" y="178" text-anchor="middle" font-family="Inter, system-ui, sans-serif" font-size="12" fill="#64748B">Revenue Growth</text>
  <rect x="60" y="240" width="680" height="8" rx="4" fill="#E2E8F0"/>
  <rect x="60" y="240" width="580" height="8" rx="4" fill="#0757B8"/>
  <rect x="60" y="270" width="680" height="8" rx="4" fill="#E2E8F0"/>
  <rect x="60" y="270" width="480" height="8" rx="4" fill="#06245C"/>
  <rect x="60" y="320" width="160" height="40" rx="8" fill="#0757B8" opacity="0.1"/>
  <rect x="240" y="320" width="160" height="40" rx="8" fill="#06245C" opacity="0.08"/>
  <rect x="420" y="320" width="160" height="40" rx="8" fill="#0757B8" opacity="0.1"/>
  <rect x="600" y="320" width="140" height="40" rx="8" fill="#06245C" opacity="0.08"/>
  <text x="400" y="430" text-anchor="middle" font-family="Inter, system-ui, sans-serif" font-size="11" fill="#64748B">Business Management &amp; Inventory Solution</text>
</svg>
